<?xml version="1.0" encoding="utf-8"?>
<!-- Generator: Adobe Illustrator 17.0.1, SVG Export Plug-In . SVG Version: 6.00 Build 0)  -->
<!DOCTYPE svg PUBLIC "-//W3C//DTD SVG 1.1//EN" "http://www.w3.org/Graphics/SVG/1.1/DTD/svg11.dtd">
<svg version="1.1" id="Layer_1" xmlns="http://www.w3.org/2000/svg" xmlns:xlink="http://www.w3.org/1999/xlink" x="0px" y="0px"
	 width="153.986px" height="139.13px" viewBox="0 0 153.986 139.13" enable-background="new 0 0 153.986 139.13"
	 xml:space="preserve">
<path d="M87.236,107.786c-0.224-0.231-0.583-0.267-0.848-0.084c0,0-0.296,0.204-0.806,0.589c-0.142,0.115-0.316,0.231-0.507,0.361
	c-0.107,0.073-0.219,0.148-0.345,0.237c-0.212,0.155-0.471,0.314-0.745,0.483c-0.123,0.075-0.249,0.153-0.393,0.244
	c-0.119,0.08-0.265,0.156-0.42,0.236l-0.403,0.215c-0.166,0.091-0.322,0.177-0.517,0.259c-0.529,0.257-1.116,0.471-1.555,0.624
	c-0.553,0.18-1.129,0.317-1.709,0.407l-0.447,0.068l-0.481,0.038c-0.177,0.021-0.37,0.022-0.575,0.022c-0.107,0-0.214,0-0.29,0.003
	c-0.706-0.014-1.274-0.069-1.8-0.178c-0.62-0.115-1.202-0.263-1.728-0.44c-0.523-0.177-1.061-0.387-1.578-0.618l-0.128-0.062
	c-0.458-0.221-0.89-0.431-1.276-0.653c-0.871-0.487-1.567-0.959-2.012-1.27c-0.461-0.327-0.722-0.533-0.729-0.539
	c-0.253-0.201-0.613-0.191-0.853,0.026c-0.24,0.215-0.289,0.573-0.116,0.845c0.022,0.034,0.224,0.347,0.656,0.85
	c0.204,0.232,0.458,0.522,0.775,0.821c0.398,0.39,0.758,0.705,1.12,0.984c0.424,0.344,0.918,0.688,1.48,1.03
	c0.513,0.3,1.117,0.642,1.799,0.911c0.604,0.24,1.314,0.509,2.07,0.655c0.661,0.151,1.4,0.242,2.26,0.277c0.009,0,0.018,0,0.027,0
	c0.006,0,0.012,0,0.017,0l0.276-0.004c0.282-0.003,0.573-0.006,0.858-0.043l0.538-0.055c0.018-0.002,0.036-0.004,0.054-0.008
	l0.522-0.097c0.781-0.137,1.509-0.4,2.126-0.641c0.618-0.25,1.229-0.566,1.79-0.923c0.297-0.169,0.558-0.358,0.807-0.543
	l0.179-0.133c0.172-0.127,0.35-0.259,0.497-0.395c0.386-0.327,0.788-0.679,1.091-1.015c0.264-0.268,0.563-0.582,0.776-0.861
	c0.394-0.487,0.604-0.774,0.604-0.774C87.486,108.377,87.461,108.018,87.236,107.786z"/>
<path d="M98.314,93.809c-0.021-0.265-0.074-0.532-0.126-0.789l-0.044-0.226c-0.025-0.128-0.061-0.252-0.099-0.377l-0.092-0.311
	c-0.036-0.123-0.072-0.246-0.122-0.374l-0.246-0.582c-0.046-0.108-0.09-0.212-0.147-0.315c-0.284-0.489-0.498-0.826-0.498-0.826
	c-0.073-0.116-0.197-0.191-0.334-0.202c-0.095-0.01-0.183,0.023-0.263,0.072c-0.026,0.003-0.052,0.001-0.077,0.008l-0.449,0.132
	c-0.092,0.03-0.199,0.062-0.32,0.099c-0.252,0.077-0.561,0.171-0.924,0.295c-0.27,0.098-0.593,0.189-0.934,0.285
	c-0.297,0.083-0.613,0.172-0.935,0.276l-2.417,0.654c-0.287,0.063-0.579,0.132-0.878,0.202c-0.647,0.152-1.316,0.31-2.03,0.435
	l-0.781,0.156c-0.164,0.031-0.332,0.057-0.5,0.083l-0.292,0.046c-0.183,0.027-0.366,0.057-0.549,0.088
	c-0.359,0.059-0.73,0.12-1.114,0.159c-0.536,0.071-1.064,0.126-1.588,0.175c0.019,0.709-0.545,1.31-1.205,1.5
	c-0.112,0.088-0.235,0.154-0.362,0.209c-0.857,1.138-2.148,1.888-3.597,1.924l0.257,0.001c0.372,0,0.862-0.003,1.342-0.03
	c0.332-0.012,0.663-0.025,1.005-0.047l0.961-0.089c0.654-0.046,1.293-0.145,1.931-0.242c0.604-0.078,1.189-0.2,1.754-0.318
	l0.109-0.023c0.618-0.117,1.219-0.276,1.774-0.427c0.564-0.143,1.128-0.311,1.663-0.495c0.925-0.284,1.75-0.622,2.548-0.949
	l0.418-0.171l0.581-0.274c0.049-0.023,0.093-0.045,0.141-0.067c0.091,0.29,0.123,0.723-0.009,1.391
	c-0.25,0.27-0.537,0.535-0.84,0.815l-0.282,0.261c-0.236,0.229-0.502,0.447-0.784,0.678c-0.166,0.135-0.333,0.272-0.474,0.395
	l-0.727,0.542c-0.237,0.18-0.472,0.355-0.746,0.524c-0.917,0.642-2.025,1.248-3.387,1.852c-0.612,0.272-1.274,0.499-1.889,0.71
	l-1.018,0.28c-0.208,0.053-0.42,0.097-0.632,0.141c-0.135,0.028-0.269,0.056-0.387,0.083c-1.431,0.265-2.823,0.364-4.228,0.284
	c-1.352-0.063-2.751-0.305-4.156-0.718c-1.227-0.367-2.489-0.907-3.761-1.613c-0.41-0.213-0.802-0.468-1.18-0.716
	c-0.162-0.106-0.324-0.212-0.47-0.302c-0.163-0.114-0.32-0.231-0.477-0.348c-0.098-0.074-0.196-0.147-0.291-0.216l-1.407-1.14
	l-0.659-0.621c-0.299-0.262-0.569-0.55-0.83-0.827c-0.017-0.018-0.033-0.035-0.05-0.053c-0.032-0.471-0.045-0.95-0.047-1.372
	c0.783,0.354,1.706,0.755,2.745,1.115c1.102,0.393,2.243,0.731,3.388,1.005c0.61,0.151,1.231,0.283,1.835,0.39
	c0.553,0.116,1.125,0.195,1.677,0.271l0.249,0.034c0.692,0.086,1.334,0.152,1.978,0.201c0.226,0.009,0.453,0.023,0.68,0.037
	c0.407,0.025,0.827,0.049,1.248,0.049l0.149,0c-0.289-0.013-0.582-0.049-0.879-0.122c-1.028-0.25-1.815-0.772-2.373-1.464
	c-0.29-0.242-0.539-0.529-0.711-0.884c-0.195-0.402-0.291-0.801-0.315-1.192c-0.888-0.095-1.857-0.211-2.797-0.367
	c-1.142-0.182-2.225-0.388-3.225-0.614c-0.977-0.206-1.88-0.445-2.753-0.676l-0.108-0.028c-0.945-0.266-1.722-0.486-2.407-0.707
	l-0.57-0.188c-0.479-0.158-0.91-0.299-1.277-0.434l-0.44-0.16c-0.003-0.001-0.005-0.002-0.008-0.003l-0.084-0.131
	c-0.354-0.104-0.71-0.21-1.065-0.316l-0.027-0.03c-0.092-0.102-0.228-0.157-0.363-0.142c-0.137,0.012-0.26,0.086-0.334,0.202
	c0,0-0.215,0.338-0.502,0.833c-0.052,0.094-0.097,0.198-0.143,0.306l-0.251,0.595c-0.044,0.115-0.08,0.236-0.116,0.358l-0.093,0.317
	c-0.037,0.123-0.073,0.246-0.098,0.374l-0.044,0.223c-0.051,0.258-0.105,0.526-0.123,0.768c-0.044,0.329-0.056,0.631-0.062,0.867
	c-0.007,0.109-0.003,0.221,0,0.319l0.006,0.155c0.003,0.083,0.007,0.157,0.017,0.209l0.032,0.212
	c0.03,0.197,0.188,0.349,0.386,0.371c0.017,0.002,0.033,0.003,0.05,0.003c0.179,0,0.342-0.109,0.409-0.279l0.084-0.214
	c0.01-0.025,0.026-0.051,0.042-0.08l0.077-0.141c0.029-0.054,0.059-0.111,0.109-0.186c0.112-0.181,0.248-0.394,0.429-0.626
	c0.103-0.15,0.237-0.3,0.379-0.458l0.152-0.172c0.051-0.059,0.111-0.112,0.168-0.165c0.04-0.037,0.08-0.074,0.105-0.099l0.113-0.105
	c0.055-0.052,0.107-0.103,0.155-0.14l0.281-0.206c0.039,0.095,0.072,0.182,0.118,0.288l0.292,0.588
	c0.436,0.916,0.958,1.827,1.557,2.714l0.17,0.243c-0.053,0.175,0.118,0.372,0.389,0.546c0.164,0.224,0.335,0.449,0.524,0.67
	l0.626,0.753l1.059,1.108l0.655,0.589c0.175,0.158,0.352,0.318,0.548,0.483c0.545,0.429,1.163,0.916,1.836,1.336
	c1.466,0.944,2.954,1.666,4.418,2.144c1.629,0.546,3.358,0.873,5.142,0.972c0.327,0.016,0.655,0.024,0.983,0.024
	c1.453,0,2.885-0.156,4.253-0.462c1.611-0.346,3.19-0.916,4.692-1.694c1.46-0.759,2.72-1.593,3.729-2.465
	c0.292-0.228,0.55-0.468,0.788-0.695l0.222-0.208c0.169-0.157,0.335-0.312,0.501-0.482l0.624-0.68
	c0.205-0.218,0.42-0.455,0.597-0.693c0.66-0.802,1.252-1.653,1.815-2.607c0.075-0.133,0.151-0.262,0.224-0.388
	c0.15-0.255,0.291-0.496,0.412-0.748l0.312-0.66l0.246,0.18c0.056,0.043,0.108,0.094,0.162,0.145l0.103,0.095
	c0.038,0.037,0.078,0.074,0.119,0.111c0.057,0.052,0.116,0.105,0.167,0.164l0.153,0.173c0.141,0.159,0.276,0.309,0.394,0.479
	c0.166,0.212,0.302,0.425,0.421,0.618c0.042,0.062,0.072,0.119,0.101,0.172l0.078,0.144c0.015,0.029,0.032,0.055,0.045,0.088
	l0.08,0.204c0.067,0.169,0.23,0.279,0.409,0.279c0.016,0,0.033-0.001,0.049-0.003c0.198-0.022,0.356-0.174,0.387-0.37l0.031-0.203
	c0.011-0.063,0.015-0.137,0.018-0.22l0.006-0.148c0.003-0.099,0.007-0.212,0.001-0.308C98.368,94.433,98.356,94.12,98.314,93.809z"
	/>
<path d="M84.38,91.292l-0.012-0.164c-0.026-0.316-0.365-0.567-0.785-0.579c-0.416-0.009-0.784,0.217-0.841,0.531l-0.031,0.165
	c-0.017,0.096-0.046,0.239-0.091,0.418c-0.096,0.364-0.24,0.915-0.578,1.572c-0.417,0.811-0.957,1.444-1.653,1.938
	c-0.426,0.303-0.91,0.537-1.398,0.674c-0.566,0.157-1.087,0.21-1.642,0.134c-1.073-0.13-1.921-0.878-2.112-1.874
	c-0.056-0.261-0.077-0.552-0.061-0.866c0.011-0.226,0.043-0.445,0.082-0.723l0.046-0.329c0.116-0.835,0.158-1.656,0.194-2.498
	c0.041-1.161,0.05-2.314,0.044-3.459c-0.29-3.333-0.322-6.689-1.021-9.986c-0.251-1.184-0.5-2.492-1.066-3.586
	c-0.181-0.288-0.361-0.529-0.533-0.729c-0.173-0.147-0.343-0.286-0.511-0.421c-0.513-0.145-0.936,0.363-0.999,1.545
	c-0.121,2.275,0.304,4.481,0.394,6.743c0.005,0.132-0.015,0.248-0.045,0.356c0.055,1.772,0.087,3.181,0.102,4.495l0.01,0.843
	c0.017,1.437,0.033,2.794-0.007,4.129c-0.024,0.752-0.055,1.55-0.151,2.303c-0.009,0.084-0.021,0.174-0.034,0.27
	c-0.041,0.31-0.088,0.662-0.077,1.011c0.006,0.492,0.07,0.96,0.191,1.39c0.282,1.02,0.892,1.905,1.763,2.558
	c0.891,0.673,2.127,1.108,3.385,1.193c0.188,0.014,0.375,0.02,0.559,0.02c0.928,0,1.853-0.169,2.671-0.486
	c0.818-0.311,1.551-0.75,2.186-1.312c0.878-0.798,1.466-1.731,1.798-2.86c0.183-0.655,0.263-1.286,0.246-1.924
	C84.4,91.564,84.39,91.396,84.38,91.292z"/>
<path d="M110.815,70.175c-0.002-0.395-0.003-0.79-0.001-1.192c-0.023-2.442-0.088-4.637-0.2-6.709
	c-0.014-0.252-0.03-0.501-0.047-0.75l-0.061-0.953l-0.524,0.146c-0.844,0.235-1.59,0.22-2.405-0.044
	c-0.16-0.052-0.314-0.132-0.483-0.252l-0.731-0.519l0.052,1.284c0.017,0.416,0.034,0.832,0.045,1.253
	c0.058,2.001,0.068,4.127,0.03,6.495c-0.012,0.394-0.02,0.792-0.029,1.191c-0.015,0.711-0.031,1.446-0.067,2.152
	c-0.022,0.404-0.04,0.807-0.058,1.212c-0.032,0.704-0.064,1.41-0.115,2.125c-0.329,4.98-0.821,9.445-1.504,13.651
	c-0.787,4.857-1.818,9.5-3.064,13.789c-0.123,0.39-0.241,0.782-0.359,1.175c-0.222,0.739-0.452,1.503-0.714,2.245l-0.572,1.695
	l-0.631,1.694c-0.183,0.506-0.394,1.05-0.648,1.666c-0.083,0.202-0.164,0.406-0.246,0.609c-0.142,0.354-0.284,0.709-0.431,1.053
	l-0.311,0.701c-0.375,0.85-0.764,1.729-1.192,2.571c-1.152,2.361-2.308,4.393-3.535,6.213c-1.432,2.142-2.872,3.932-4.402,5.47
	c-1.733,1.743-3.54,3.096-5.371,4.023c-1.98,1.008-4.015,1.526-6.05,1.541l-1.405-0.075c-0.031-0.001-0.062-0.001-0.083-0.005
	l-0.912-0.158c-0.053-0.01-0.105-0.018-0.157-0.025c-0.058-0.008-0.117-0.015-0.178-0.032l-1.182-0.321
	c-0.151-0.042-0.297-0.102-0.444-0.16c-0.1-0.04-0.199-0.08-0.285-0.11c-0.1-0.04-0.201-0.077-0.302-0.115
	c-0.151-0.056-0.303-0.112-0.435-0.172l-0.747-0.372c-1.831-0.927-3.638-2.28-5.369-4.022c-1.528-1.537-2.968-3.326-4.403-5.471
	c-1.226-1.817-2.382-3.849-3.537-6.218c-0.425-0.836-0.814-1.715-1.19-2.565l-0.308-0.693c-0.151-0.353-0.294-0.71-0.437-1.066
	c-0.08-0.201-0.161-0.402-0.244-0.604c-0.25-0.605-0.46-1.149-0.645-1.669l-0.625-1.678l-0.579-1.713
	c-0.261-0.737-0.492-1.504-0.714-2.245c-0.117-0.39-0.235-0.781-0.354-1.16c-1.248-4.295-2.28-8.937-3.067-13.796
	c-1.393-8.765-1.979-17.793-1.743-26.834c0.019-0.742,0.051-1.478,0.083-2.214l0.026-0.605l-0.476,0.017
	c-0.993,0.035-2.027-0.069-3.101-0.309l-0.499-0.111l-0.036,0.51c-0.06,0.849-0.117,1.7-0.162,2.561
	c-0.495,9.6-0.09,18.921,1.204,27.704c0.741,5.068,1.743,9.924,2.979,14.435c1.534,5.496,3.259,10.169,5.274,14.286
	c1.241,2.576,2.498,4.809,3.841,6.826c1.611,2.435,3.251,4.489,5.012,6.28c2.113,2.144,4.361,3.836,6.686,5.031l0.962,0.481
	c0.224,0.101,0.455,0.191,0.687,0.28c0.108,0.042,0.215,0.083,0.334,0.13c0.11,0.04,0.219,0.084,0.329,0.127
	c0.224,0.089,0.456,0.181,0.709,0.255l1.565,0.433c0.13,0.034,0.273,0.058,0.415,0.082l1.625,0.259
	c0.077,0.011,0.139,0.014,0.203,0.017l1.634,0.087h0.012c2.849-0.017,5.779-0.762,8.473-2.156c2.321-1.193,4.569-2.885,6.682-5.029
	c1.761-1.789,3.4-3.843,5.011-6.277c1.344-2.018,2.601-4.251,3.841-6.824c2.026-4.139,3.701-8.68,5.272-14.291
	c1.236-4.51,2.238-9.366,2.979-14.433c0.699-4.836,1.136-9.594,1.299-14.137c0.035-0.757,0.05-1.517,0.065-2.273
	c0.008-0.4,0.016-0.799,0.027-1.198C110.821,71.626,110.818,70.888,110.815,70.175z"/>
<path d="M4.295,65.115c0,0,0.138-0.041,0.406-0.12c0.267-0.079,0.664-0.199,1.187-0.335c1.044-0.277,2.574-0.707,4.534-1.157
	c1.959-0.467,4.342-1.017,7.091-1.562c1.375-0.269,2.839-0.555,4.381-0.857c1.543-0.31,3.175-0.549,4.875-0.832
	c1.702-0.274,3.475-0.56,5.311-0.856c1.839-0.268,3.745-0.492,5.703-0.751c3.916-0.528,8.059-0.952,12.349-1.37
	c2.146-0.192,4.332-0.334,6.544-0.495c1.106-0.079,2.219-0.159,3.338-0.239c1.119-0.079,2.245-0.117,3.375-0.167
	c4.522-0.197,9.117-0.394,13.718-0.403c2.3-0.005,4.6-0.01,6.891-0.015c1.145-0.018,2.289,0.042,3.429,0.071
	c1.14,0.035,2.277,0.07,3.409,0.105c2.264,0.063,4.509,0.147,6.727,0.247c2.217,0.146,4.407,0.289,6.558,0.461
	c2.151,0.17,4.268,0.306,6.334,0.508c2.064,0.246,4.083,0.487,6.049,0.721c1.964,0.242,3.876,0.444,5.719,0.701
	c0.461,0.064,0.917,0.127,1.37,0.189c0.452,0.077,0.899,0.153,1.342,0.229c0.886,0.152,1.756,0.3,2.607,0.446
	c1.702,0.298,3.335,0.555,4.881,0.851c1.545,0.293,3.01,0.572,4.387,0.833c2.743,0.602,5.118,1.211,7.073,1.689
	c1.957,0.469,3.481,0.905,4.524,1.172c1.039,0.288,1.593,0.441,1.593,0.441l-0.07,0.435c0,0-2.261-0.306-6.219-0.842
	c-1.978-0.267-4.381-0.592-7.136-0.965c-2.767-0.277-5.889-0.589-9.294-0.929c-0.851-0.087-1.72-0.176-2.605-0.266
	c-0.443-0.045-0.89-0.091-1.341-0.137c-0.452-0.031-0.908-0.063-1.369-0.095c-1.84-0.128-3.743-0.26-5.699-0.396
	c-1.956-0.136-3.965-0.276-6.019-0.418c-2.057-0.083-4.159-0.169-6.296-0.255c-2.137-0.086-4.31-0.174-6.51-0.263
	c-2.201-0.033-4.429-0.066-6.675-0.099c-2.246-0.024-4.509-0.084-6.782-0.079c-2.273,0.02-4.554,0.041-6.836,0.061
	c-4.564-0.019-9.125,0.16-13.616,0.263c-2.246,0.039-4.471,0.166-6.671,0.26c-2.199,0.101-4.372,0.201-6.509,0.299
	c-2.135,0.134-4.235,0.266-6.29,0.395c-1.028,0.064-2.044,0.128-3.048,0.191c-1.003,0.077-1.994,0.154-2.972,0.229
	c-1.955,0.154-3.857,0.304-5.696,0.449c-1.838,0.169-3.613,0.332-5.317,0.489c-3.41,0.304-6.528,0.656-9.296,0.933
	c-2.764,0.311-5.174,0.581-7.154,0.834c-1.981,0.248-3.537,0.452-4.594,0.603c-1.059,0.151-1.624,0.232-1.624,0.232L4.295,65.115z"
	/>
<path d="M77.263,46.858c-20.995,0-43.425,3.956-53.247,6.829c-10.615,3.106-19.504,7.27-22.647,10.61
	c-0.234,0.249-0.401,0.535-0.51,0.837c-0.032,0.185,0.005,0.446,0.388,0.605c0.785,0.329,2.45,0.659,4.665,0.979
	c10.315,1.49,38.79,2.232,38.79,2.232l2.249-8.22c0,0-19.4,1.192-35.72,2.868c10.353-5.013,37.934-11.896,66.032-11.896
	c1.337,0,2.422-1.084,2.422-2.422S78.6,46.858,77.263,46.858z"/>
<path d="M77.033,46.858c20.995,0,43.425,3.956,53.247,6.829c10.615,3.106,19.504,7.27,22.647,10.61
	c0.234,0.249,0.401,0.535,0.51,0.837c0.032,0.185-0.005,0.446-0.388,0.605c-0.785,0.329-2.45,0.659-4.665,0.979
	c-10.315,1.49-38.79,2.232-38.79,2.232l-2.249-8.22c0,0,19.4,1.192,35.72,2.868c-10.353-5.013-37.934-11.896-66.032-11.896
	c-1.337,0-2.422-1.084-2.422-2.422S75.696,46.858,77.033,46.858z"/>
<polygon points="39.901,66.675 39.901,71.959 44.965,72.84 44.745,66.675 "/>
<path d="M46.309,91.209c-5.224-2.09-9.191-8.921-9.618-13.991c-0.231-2.742,0.589-4.831,2.307-5.881
	c2.045-1.25,3.709-1.115,4.744-0.781c2.37,0.764,3.412,3.098,3.523,3.362l-3.24,1.382c-0.139-0.312-0.656-1.17-1.376-1.395
	c-0.482-0.15-1.092-0.003-1.814,0.438c-0.507,0.31-0.744,1.274-0.634,2.58c0.331,3.932,3.573,9.479,7.415,11.016L46.309,91.209z"/>
<path d="M107.987,91.209c5.224-2.09,9.191-8.921,9.618-13.991c0.231-2.742-0.589-4.831-2.307-5.881
	c-2.045-1.25-3.709-1.115-4.744-0.781c-2.37,0.764-3.412,3.098-3.523,3.362l3.24,1.382c0.139-0.312,0.656-1.17,1.376-1.395
	c0.482-0.15,1.092-0.003,1.814,0.438c0.507,0.31,0.744,1.274,0.634,2.58c-0.331,3.932-3.573,9.479-7.415,11.016L107.987,91.209z"/>
<polygon points="115.196,66.675 115.196,71.959 110.132,72.84 110.352,66.675 "/>
<path d="M113.608,86.808c0,0,0.844,16.733-10.016,12.477l0.165-3.388l4.589-8.992L113.608,86.808z"/>
<path d="M40.732,86.183c0,0-0.844,16.733,10.016,12.477l-0.165-3.388l-4.589-8.992L40.732,86.183z"/>
<path d="M43.241,54.784c-0.023,0-0.046,0-0.069-0.001c-1.58-0.038-2.831-1.349-2.793-2.93l0.587-24.661
	c0.025-1.038,0.61-1.981,1.528-2.465c0.15-0.079,15.286-8.231,15.794-20.195c0.06-1.402,1.127-2.554,2.521-2.721
	c0.409-0.049,10.076-1.194,16.34-1.194c1.581,0,2.862,1.282,2.862,2.862s-1.282,2.862-2.862,2.862
	c-4.162,0-10.164,0.565-13.395,0.904c-1.886,11.477-13.006,19.201-17.103,21.69L46.101,51.99
	C46.064,53.547,44.79,54.784,43.241,54.784z"/>
<path d="M111.055,53.904c-1.548,0-2.822-1.235-2.86-2.792l-0.547-22.173c-4.096-2.489-15.218-10.214-17.104-21.691
	c-3.232-0.339-9.233-0.904-13.395-0.904c-1.581,0-2.862-1.282-2.862-2.862s1.282-2.862,2.862-2.862
	c6.264,0,15.931,1.146,16.339,1.194c1.393,0.166,2.461,1.318,2.521,2.721c0.262,6.152,4.474,11.278,7.962,14.495
	c3.936,3.63,7.794,5.679,7.833,5.699c0.918,0.483,1.503,1.425,1.528,2.462l0.587,23.78c0.039,1.58-1.211,2.893-2.791,2.932
	C111.103,53.904,111.079,53.904,111.055,53.904z"/>
<path d="M109.956,31.885c-26.422-9.028-64.955-1.101-65.175-0.661L43.9,52.362l21.798-3.303l16.734,0.22l24,2.202l3.963-1.101
	L109.956,31.885z M84.103,35.803c-0.029,0.194-0.299,1.883-1.156,3.931c-1.193,2.85-2.963,4.987-5.119,6.18
	c-0.21,0.116-0.444,0.177-0.68,0.177c-0.236,0-0.47-0.06-0.676-0.175c-2.159-1.195-3.93-3.333-5.123-6.182
	c-0.873-2.086-1.144-3.849-1.155-3.923c-0.059-0.394,0.049-0.789,0.295-1.092c0.245-0.303,0.61-0.491,0.999-0.515
	c2.162-0.135,4.793-2.08,4.819-2.1c0.495-0.371,1.193-0.368,1.681-0.002c0.028,0.021,2.678,1.968,4.815,2.102
	c0.396,0.025,0.76,0.213,1.006,0.516C84.053,35.021,84.16,35.417,84.103,35.803z"/>
<circle cx="62.051" cy="71.165" r="6.347"/>
<circle cx="92.245" cy="71.165" r="6.347"/>
<polygon points="40.217,72.406 40.735,66.675 41.551,67.572 41.717,71.239 "/>
</svg>
